General
Complete name : {TIrG}The One.DVDRip.aaaevilacharya.mkv
Format : Matroska
File size : 641 MiB
Duration : 1h 27mn
Overall bit rate : 1 026 Kbps
Encoded date : UTC 2010-10-07 17:27:49


Video
ID : 1
Format : MPEG-4 Visual
Format profile : Simple@L1
Format settings, BVOP : No
Format settings, QPel : No
Format settings, GMC : No warppoints
Format settings, Matrix : Default (H.263)
Codec ID : DX50
Codec ID/Hint : DivX 5
Duration : 1h 27mn
Bit rate : 893 Kbps
Width : 720 pixels
Height : 292 pixels
Display aspect ratio : 2.466
Frame rate : 23.976 fps
Color space : YUV
Chroma subsampling : 4:2:0
Bit depth : 8 bits
Scan type : Interlaced
Scan order : Top Field First
Bits/(Pixel*Frame) : 0.177
Stream size : 558 MiB (87%)
Title : aaaevilacharya
Writing library : Lavc52.30.1
Language : English

Audio
ID : 2
Format : MPEG Audio
Format version : Version 1
Format profile : Layer 3
Mode : Joint stereo
Mode extension : MS Stereo
Codec ID : A_MPEG/L3
Codec ID/Hint : MP3
Duration : 1h 27mn
Bit rate mode : Constant
Bit rate : 112 Kbps
Channel(s) : 2 channels
Sampling rate : 44.1 KHz
Stream size : 70.0 MiB (11%)
Title : aaaevilacharya
Writing library : LAME3.98.2
Language : English

screenshots/
 
http://img219.imageshack.us/img219/7510/vlcsnap2010100712h38m51.png
 
http://img89.imageshack.us/img89/8158/vlcsnap2010100712h39m42.png
 
http://img2.imageshack.us/img2/5760/vlcsnap2010100712h36m07.png
 
http://img38.imageshack.us/img38/5523/vlcsnap2010100712h36m50.png
 
http://img580.imageshack.us/img580/7711/vlcsnap2010100712h37m33.png
 
http://img100.imageshack.us/img100/3720/vlcsnap2010100712h37m53.png
 
http://img140.imageshack.us/img140/5687/vlcsnap2010100712h38m07.png



 
http://img233.imageshack.us/img233/8597/engtheone.jpg
